<?xml version="1.0" encoding="utf-8"?>
<!-- Generator: Adobe Illustrator 19.1.0, SVG Export Plug-In . SVG Version: 6.00 Build 0)  -->
<svg version="1.1" id="Layer_2" xmlns="http://www.w3.org/2000/svg" xmlns:xlink="http://www.w3.org/1999/xlink" x="0px" y="0px"
	 viewBox="0 0 515 334" style="enable-background:new 0 0 515 334;" xml:space="preserve">
<style type="text/css">
	.st0{fill-rule:evenodd;clip-rule:evenodd;fill:#FF9900;}
	.st1{stroke:#000000;}
	.st2{fill-rule:evenodd;clip-rule:evenodd;}
</style>
<g>
	<polygon class="st0" points="106.3,230.2 83.2,221.9 83.2,188.1 106.3,196 	"/>
	<polygon class="st0" points="110.5,230.2 133.6,221.9 133.6,188.1 110.5,196 	"/>
	<polygon class="st0" points="85.6,185.6 108.9,179 130.6,186 108.9,193.4 	"/>
</g>
<g>
	<polygon class="st0" points="78.8,183 55.8,174.7 55.8,140.9 78.8,148.8 	"/>
	<polygon class="st0" points="83.1,183 106.1,174.7 106.1,140.9 83.1,148.8 	"/>
	<polygon class="st0" points="58.1,138.4 81.5,131.8 103.1,138.8 81.5,146.1 	"/>
</g>
<g>
	<polygon class="st0" points="132.7,183 109.6,174.7 109.6,140.9 132.7,148.8 	"/>
	<polygon class="st0" points="136.9,183 159.9,174.7 159.9,140.9 136.9,148.8 	"/>
	<polygon class="st0" points="112,138.4 135.3,131.8 156.9,138.8 135.3,146.1 	"/>
</g>
<g>
	<polygon class="st0" points="160.1,135.8 137,127.5 137,93.7 160.1,101.5 	"/>
	<polygon class="st0" points="164.3,135.8 187.4,127.5 187.4,93.7 164.3,101.5 	"/>
	<polygon class="st0" points="139.4,91.1 162.8,84.6 184.4,91.5 162.8,98.9 	"/>
</g>
<g>
	<polygon class="st0" points="213.9,135.8 190.9,127.5 190.9,93.7 213.9,101.5 	"/>
	<polygon class="st0" points="218.2,135.8 241.2,127.5 241.2,93.7 218.2,101.5 	"/>
	<polygon class="st0" points="193.2,91.1 216.6,84.6 238.2,91.5 216.6,98.9 	"/>
</g>
<g>
	<path class="st1" d="M202.2,208.2l-7.7,26.9h-3.4l-6-20l-5.5,20h-3.4l-8.1-26.9h4.2l5.9,20.1l5.6-20.1h3.1l6.1,20.1l6-20.1H202.2z"
		/>
	<path class="st1" d="M223.6,227.1l3.9,0.8c-0.7,2.3-2.1,4.2-4.1,5.7c-2.1,1.5-4.5,2.3-7.3,2.3c-3.7,0-6.6-1.3-8.9-3.9
		c-2.3-2.6-3.4-6-3.4-10.2c0-4.3,1.2-7.8,3.5-10.4c2.4-2.6,5.3-4,8.9-4c3.5,0,6.3,1.2,8.5,3.6c2.1,2.4,3.2,6.1,3.3,10.9h-19.5
		c0,4.1,0.9,6.8,2.6,8.2c1.7,1.4,3.5,2.1,5.4,2.1C219.8,232.4,222.2,230.6,223.6,227.1z M223.4,218.9c0-1.5-0.3-2.8-0.7-4
		c-0.5-1.2-1.2-2.2-2.3-3c-1.1-0.8-2.4-1.2-4-1.2c-2.1,0-3.8,0.7-5.3,2.2c-1.4,1.5-2.3,3.5-2.4,6H223.4z"/>
	<path class="st1" d="M235.5,235.1h-2v-36.3h4.2v13.9c1.9-3.5,4.6-5.2,7.9-5.2c3.1,0,5.7,1.2,7.7,3.7c2.1,2.4,3.1,6,3.1,10.6
		c0,4-1,7.4-3.1,10.1c-2,2.7-4.7,4.1-8,4.1c-3.7,0-6.5-1.7-8.4-5.2L235.5,235.1z M237.7,224.6c0.2,2.8,1,4.8,2.5,6
		c1.5,1.2,3.1,1.9,4.8,1.9c2.1,0,3.8-0.9,5.2-2.8c1.3-1.8,2-4.4,2-7.6c0-3.5-0.6-6.2-1.9-8.2c-1.3-2-3-3-5.2-3
		c-1.8,0-3.3,0.7-4.8,2.1c-1.4,1.4-2.2,3.2-2.5,5.5V224.6z"/>
	<path class="st1" d="M267.2,228.1l4-0.8c0.9,3.4,3.7,5.1,8.4,5.1c1.7,0,3.2-0.4,4.4-1.2c1.2-0.8,1.8-1.9,1.8-3.3
		c0-2.1-1.5-3.4-4.6-4l-5.7-1.1c-2.2-0.4-4-1.3-5.3-2.5c-1.3-1.2-2-2.9-2-4.9c0-2.3,0.9-4.1,2.7-5.7c1.8-1.5,4.2-2.3,7.2-2.3
		c5.8,0,9.4,2.3,10.8,6.8l-3.8,0.8c-1.1-2.8-3.4-4.2-6.8-4.2c-1.7,0-3.1,0.3-4.2,1c-1.1,0.7-1.6,1.7-1.6,2.9c0,2,1.4,3.2,4.2,3.7
		l5.2,1c5.5,1,8.2,3.7,8.2,8c0,2.5-1,4.5-3.1,6c-2,1.5-4.8,2.3-8.2,2.3C272.6,235.9,268.7,233.3,267.2,228.1z"/>
	<path class="st1" d="M312.5,227.1l3.9,0.8c-0.7,2.3-2.1,4.2-4.2,5.7c-2.1,1.5-4.5,2.3-7.3,2.3c-3.7,0-6.6-1.3-8.9-3.9
		c-2.3-2.6-3.4-6-3.4-10.2c0-4.3,1.2-7.8,3.5-10.4c2.4-2.6,5.3-4,8.9-4c3.5,0,6.3,1.2,8.5,3.6c2.1,2.4,3.2,6.1,3.3,10.9h-19.5
		c0,4.1,0.9,6.8,2.6,8.2c1.7,1.4,3.5,2.1,5.4,2.1C308.7,232.4,311.1,230.6,312.5,227.1z M312.3,218.9c0-1.5-0.3-2.8-0.7-4
		c-0.5-1.2-1.2-2.2-2.3-3c-1.1-0.8-2.4-1.2-4-1.2c-2.1,0-3.8,0.7-5.3,2.2c-1.4,1.5-2.3,3.5-2.4,6H312.3z"/>
	<path class="st1" d="M325.6,235.1h-4.2v-26.9h3.7v6.3c1.3-2.9,2.6-4.8,3.9-5.7c1.3-0.9,2.6-1.3,4-1.3c0.4,0,1,0,1.7,0.1v4h-0.8
		c-2.3,0-4.2,0.9-5.7,2.6c-1.5,1.7-2.3,4-2.4,6.8V235.1z"/>
	<path class="st1" d="M360.7,208.2l-9.3,26.9H347l-9.6-26.9h4.6l7.5,21.9l7.4-21.9H360.7z"/>
	<path class="st1" d="M368.5,198.8v4.6H364v-4.6H368.5z M368.4,208.2v26.9h-4.2v-26.9H368.4z"/>
	<path class="st1" d="M390.3,225.7l3.8,0.7c-0.5,3-1.7,5.3-3.5,7c-1.8,1.7-4.1,2.5-6.8,2.5c-3.7,0-6.5-1.4-8.5-4.1
		c-1.9-2.7-2.9-6.1-2.9-10c0-4.1,1-7.5,3.1-10.2c2-2.7,4.8-4.1,8.4-4.1c2.9,0,5.3,0.9,7,2.6c1.8,1.8,2.9,4,3.3,6.8l-3.8,0.7
		c-0.7-4.4-2.9-6.7-6.4-6.7c-2.3,0-4.1,1-5.3,2.9c-1.2,2-1.9,4.5-1.9,7.6c0,3.4,0.6,6.1,1.8,8c1.2,1.9,3,2.9,5.2,2.9
		C387.2,232.4,389.4,230.1,390.3,225.7z"/>
	<path class="st1" d="M417.7,227.1l3.9,0.8c-0.7,2.3-2.1,4.2-4.2,5.7c-2.1,1.5-4.5,2.3-7.3,2.3c-3.7,0-6.6-1.3-8.9-3.9
		c-2.3-2.6-3.4-6-3.4-10.2c0-4.3,1.2-7.8,3.5-10.4c2.4-2.6,5.3-4,8.9-4c3.5,0,6.3,1.2,8.5,3.6c2.1,2.4,3.2,6.1,3.3,10.9h-19.5
		c0,4.1,0.9,6.8,2.6,8.2c1.7,1.4,3.5,2.1,5.4,2.1C413.9,232.4,416.3,230.6,417.7,227.1z M417.5,218.9c0-1.5-0.3-2.8-0.7-4
		c-0.5-1.2-1.2-2.2-2.3-3c-1.1-0.8-2.4-1.2-4-1.2c-2.1,0-3.8,0.7-5.3,2.2c-1.4,1.5-2.3,3.5-2.4,6H417.5z"/>
	<path class="st1" d="M424.4,228.1l4-0.8c0.9,3.4,3.7,5.1,8.4,5.1c1.7,0,3.2-0.4,4.4-1.2c1.2-0.8,1.8-1.9,1.8-3.3
		c0-2.1-1.5-3.4-4.6-4l-5.7-1.1c-2.2-0.4-4-1.3-5.3-2.5c-1.3-1.2-2-2.9-2-4.9c0-2.3,0.9-4.1,2.7-5.7c1.8-1.5,4.2-2.3,7.2-2.3
		c5.8,0,9.4,2.3,10.8,6.8l-3.8,0.8c-1.1-2.8-3.4-4.2-6.8-4.2c-1.7,0-3.1,0.3-4.2,1c-1.1,0.7-1.6,1.7-1.6,2.9c0,2,1.4,3.2,4.2,3.7
		l5.2,1c5.5,1,8.2,3.7,8.2,8c0,2.5-1,4.5-3.1,6c-2,1.5-4.8,2.3-8.2,2.3C429.9,235.9,426,233.3,424.4,228.1z"/>
</g>
<g>
	<g>
		<path class="st2" d="M329.9,150.7v-6.5c0-1,0.7-1.6,1.6-1.6l29,0c0.9,0,1.7,0.7,1.7,1.6l0,5.5c0,0.9-0.8,2.1-2.2,4.1l-15,21.4
			c5.6-0.1,11.5,0.7,16.5,3.5c1.1,0.6,1.4,1.6,1.5,2.5v6.9c0,1-1,2.1-2.1,1.5c-8.9-4.7-20.8-5.2-30.6,0.1c-1,0.5-2.1-0.5-2.1-1.5
			v-6.6c0-1,0-2.8,1.1-4.4l17.4-24.9l-15.1,0C330.7,152.3,329.9,151.6,329.9,150.7z"/>
		<path class="st2" d="M226.2,191h-8.8c-0.8-0.1-1.5-0.7-1.6-1.5l0-45.2c0-0.9,0.8-1.6,1.7-1.6l8.2,0c0.9,0,1.5,0.7,1.6,1.5v5.9h0.2
			c2.1-5.7,6.2-8.4,11.6-8.4c5.5,0,9,2.7,11.4,8.4c2.1-5.7,7-8.4,12.2-8.4c3.7,0,7.7,1.5,10.2,5c2.8,3.8,2.2,9.3,2.2,14.2l0,28.6
			c0,0.9-0.8,1.6-1.7,1.6h-8.8c-0.9-0.1-1.6-0.8-1.6-1.6l0-24c0-1.9,0.2-6.7-0.2-8.5c-0.7-3-2.6-3.9-5.2-3.9c-2.1,0-4.4,1.4-5.3,3.7
			c-0.9,2.3-0.8,6.1-0.8,8.7v24c0,0.9-0.8,1.6-1.7,1.6H241c-0.9-0.1-1.6-0.8-1.6-1.6l0-24c0-5,0.8-12.5-5.4-12.5
			c-6.3,0-6.1,7.2-6.1,12.5l0,24C227.9,190.3,227.2,191,226.2,191z"/>
		<path class="st2" d="M383.5,141.7c13,0,20,11.2,20,25.5c0,13.8-7.8,24.8-20,24.8c-12.7,0-19.7-11.2-19.7-25.2
			C363.8,152.7,370.8,141.7,383.5,141.7z M383.6,152.1c-6.5,0-6.9,8.9-6.9,14.4c0,5.5-0.1,16.2,6.8,16.2c6.8,0,7.1-8.4,7.1-14.2
			c0-3.8-0.2-8.4-1.3-12C388.3,153.4,386.4,152.1,383.6,152.1z"/>
		<path class="st2" d="M422.3,191h-8.8c-0.9-0.1-1.6-0.8-1.6-1.6l0-45.3c0.1-0.8,0.8-1.5,1.7-1.5l8.2,0c0.8,0,1.4,0.6,1.6,1.3v6.9
			h0.2c2.5-6.2,5.9-9.1,12-9.1c3.9,0,7.8,1.4,10.3,5.3c2.3,3.6,2.3,9.7,2.3,14.1v28.5c-0.1,0.8-0.8,1.4-1.7,1.4h-8.8
			c-0.8-0.1-1.5-0.7-1.6-1.4v-24.6c0-5,0.6-12.2-5.5-12.2c-2.1,0-4.1,1.4-5.1,3.6c-1.2,2.8-1.4,5.5-1.4,8.6v24.4
			C424,190.3,423.2,191,422.3,191z"/>
		<path class="st2" d="M307.8,169.4c0,3.4,0.1,6.3-1.6,9.4c-1.4,2.5-3.6,4-6.1,4c-3.4,0-5.4-2.6-5.4-6.4c0-7.5,6.7-8.9,13.1-8.9
			V169.4z M316.7,190.9c-0.6,0.5-1.4,0.6-2.1,0.2c-2.9-2.4-3.5-3.6-5.1-5.9c-4.8,4.9-8.3,6.4-14.5,6.4c-7.4,0-13.2-4.6-13.2-13.7
			c0-7.2,3.9-12,9.4-14.4c4.8-2.1,11.5-2.5,16.6-3.1v-1.1c0-2.1,0.2-4.6-1.1-6.4c-1.1-1.6-3.1-2.3-4.9-2.3c-3.4,0-6.4,1.7-7.1,5.3
			c-0.2,0.8-0.7,1.6-1.5,1.6l-8.5-0.9c-0.7-0.2-1.5-0.7-1.3-1.8c2-10.4,11.3-13.5,19.7-13.5c4.3,0,9.9,1.1,13.3,4.4
			c4.3,4,3.9,9.4,3.9,15.2v13.7c0,4.1,1.7,5.9,3.3,8.2c0.6,0.8,0.7,1.8,0,2.3C321.7,186.6,318.5,189.4,316.7,190.9L316.7,190.9z"/>
		<path class="st2" d="M193.3,169.4c0,3.4,0.1,6.3-1.6,9.4c-1.4,2.5-3.6,4-6.1,4c-3.4,0-5.4-2.6-5.4-6.4c0-7.5,6.7-8.9,13.1-8.9
			V169.4z M202.1,190.9c-0.6,0.5-1.4,0.6-2.1,0.2c-2.9-2.4-3.5-3.6-5.1-5.9c-4.8,4.9-8.3,6.4-14.5,6.4c-7.4,0-13.2-4.6-13.2-13.7
			c0-7.2,3.9-12,9.4-14.4c4.8-2.1,11.5-2.5,16.6-3.1v-1.1c0-2.1,0.2-4.6-1.1-6.4c-1.1-1.6-3.1-2.3-4.9-2.3c-3.4,0-6.4,1.7-7.1,5.3
			c-0.2,0.8-0.7,1.6-1.5,1.6l-8.5-0.9c-0.7-0.2-1.5-0.7-1.3-1.8c2-10.4,11.3-13.5,19.7-13.5c4.3,0,9.9,1.1,13.3,4.4
			c4.3,4,3.9,9.4,3.9,15.2v13.7c0,4.1,1.7,5.9,3.3,8.2c0.6,0.8,0.7,1.8,0,2.3C207.1,186.6,203.9,189.4,202.1,190.9L202.1,190.9z"/>
	</g>
</g>
</svg>
