<?xml version="1.0" encoding="utf-8"?>
<!-- Generator: Adobe Illustrator 19.1.0, SVG Export Plug-In . SVG Version: 6.00 Build 0)  -->
<svg version="1.1" id="Layer_1" xmlns="http://www.w3.org/2000/svg" xmlns:xlink="http://www.w3.org/1999/xlink" x="0px" y="0px"
	 viewBox="0 0 792 612" style="enable-background:new 0 0 792 612;" xml:space="preserve">
<style type="text/css">
	.st0{fill:#8DC63F;}
	.st1{fill:#007F3E;}
</style>
<g>
	<path d="M335.4,275.6c-0.2-3.3-3.7-5.4-7.2-5.4c-8.4,0-10,7.7-10,13.7c0,7,2.1,13.7,9.5,13.7c3.6,0,6.9-1.8,7.5-5.4h4.9
		c-0.5,5.7-6.2,9.5-12.9,9.5c-10.1,0-14.1-8.2-14.1-17.7c0-8.4,3.7-18.1,15.1-17.7c6.6,0.2,11.5,3.4,12,9.5H335.4z"/>
	<path d="M348.5,289.9c-0.3,4.2,1.4,8.4,5.9,8.4c3.5,0,5.2-1.4,5.8-4.8h4.7c-0.7,5.4-4.9,8.1-10.5,8.1c-7.6,0-10.6-5.4-10.6-12.4
		c0-6.9,3.5-12.7,11-12.7c7.1,0.1,10.4,4.6,10.4,11.2v2.2H348.5z M360.5,286.8c0.1-4-1.7-7-6-7c-3.7,0-5.9,3.2-5.9,7H360.5z"/>
	<path d="M374.2,280.7L374.2,280.7c1.6-3,4.9-4.2,7.3-4.2c1.7,0,9,0.4,9,8v16.4h-4.5V286c0-3.9-1.6-6-5.4-6c0,0-2.4-0.1-4.3,1.7
		c-0.7,0.7-1.9,1.7-1.9,6.3v12.9h-4.5v-23.7h4.4V280.7z"/>
	<path d="M397.5,277.2v-5l4.5-1.4v6.5h5.5v3.3H402v15.2c0,1.7,1.3,2.5,2.9,2.5c0.7,0,1.7-0.1,2.4-0.3v3.4c-1,0.1-2,0.3-3.1,0.3
		c-1.1,0-1.9,0-3-0.2c-0.7-0.1-1.9-0.5-2.6-1.6c-0.8-1.1-1-1.2-1-4.4v-15h-4.1v-3.3H397.5z"/>
	<path d="M427.2,277.2h4.5v23.7h-4.4v-3.5h-0.1c-1.8,3-4.8,4.2-8.1,4.2c-5,0-7.8-3.8-7.8-8.5v-15.9h4.5v14c0,4.1,0.9,7.1,5.2,7.1
		c1.8,0,4.3-0.9,5.3-3.4c0.8-2.2,0.9-5,0.9-5.6V277.2z"/>
	<path d="M442.1,300.9h-4.5v-23.7h4.5v4.6h0.1c0.7-3.3,3.7-4.9,6.9-4.9c0.6,0,1,0.1,1.6,0.1v4.2c-0.6-0.2-1.3-0.2-1.9-0.2
		c-5.7,0.2-6.7,3.2-6.7,8.2V300.9z"/>
	<polygon points="464,309.9 459.4,309.9 463,300.8 453.1,277.2 458.1,277.2 465.5,295.9 473.1,277.2 477.9,277.2 	"/>
	<polygon points="481.3,300.9 481.3,266.8 488.6,266.8 488.6,295.2 503.3,295.2 503.3,300.9 	"/>
	<path d="M515.1,272.9h-7.6v-6.1h7.6V272.9z M514.9,300.9h-7.1v-23.7h7.1V300.9z"/>
	<path d="M528.7,279.9l0.1,0.1c1.5-2.2,3.7-3.6,7.3-3.6c2.4,0,6.9,1.7,7.8,5.2c0.4,1.5,0.5,3,0.5,3.8v15.4h-7.1v-14.2
		c0-2.6-0.8-5.4-4.2-5.4c-2.2,0-4.2,2-4.2,5.4v14.2h-7.1v-23.7h7V279.9z"/>
	<polygon points="558.2,286.8 558.3,286.9 565.3,276.9 573.2,276.9 565,287.3 573.7,300.9 565.4,300.9 558.3,287.9 558.2,288 
		558.2,300.9 551.1,300.9 551.1,266.8 558.2,266.8 	"/>
	<path class="st0" d="M225.5,305.2c2.5,3.5,5.5,6.5,9,9l12.3-21.2L225.5,305.2z"/>
	<path class="st0" d="M234.5,253.5c-3.5,2.5-6.5,5.5-9,9l21.2,12.3L234.5,253.5z"/>
	<path class="st0" d="M271.4,250.1c-3.8-1.8-7.9-2.9-12.3-3.3v24.5L271.4,250.1z"/>
	<path class="st0" d="M240.2,317.5c3.8,1.8,7.9,2.9,12.3,3.3v-24.5L240.2,317.5z"/>
	<path class="st0" d="M286.2,262.5c-2.5-3.5-5.5-6.5-9-9L265,274.7L286.2,262.5z"/>
	<path class="st0" d="M277.2,314.2c3.5-2.5,6.5-5.5,9-9L265,293L277.2,314.2z"/>
	<path class="st1" d="M292.8,280.5c-0.4-4.3-1.5-8.5-3.3-12.3l-21.2,12.3H292.8z"/>
	<path class="st1" d="M218.9,287.2c0.4,4.3,1.5,8.5,3.3,12.2l21.2-12.2H218.9z"/>
	<path class="st1" d="M222.2,268.2c-1.8,3.8-2.9,7.9-3.3,12.3h24.5L222.2,268.2z"/>
	<path class="st1" d="M268.3,287.2l21.2,12.2c1.8-3.8,2.9-7.9,3.3-12.2H268.3z"/>
	<path class="st1" d="M252.5,246.9c-4.3,0.4-8.5,1.5-12.3,3.3l12.3,21.2V246.9z"/>
	<path class="st1" d="M259.2,320.8c4.3-0.4,8.5-1.5,12.3-3.3l-12.3-21.2V320.8z"/>
</g>
</svg>
