<?xml version="1.0" encoding="utf-8"?>
<!-- Generator: Adobe Illustrator 19.1.0, SVG Export Plug-In . SVG Version: 6.00 Build 0)  -->
<svg version="1.1" id="Layer_1" xmlns="http://www.w3.org/2000/svg" xmlns:xlink="http://www.w3.org/1999/xlink" x="0px" y="0px"
	 viewBox="0 0 612 792" style="enable-background:new 0 0 612 792;" xml:space="preserve">
<style type="text/css">
	.st0{fill:#E57125;}
	.st1{fill:#5482A2;}
</style>
<g>
	<path class="st0" d="M374.3,305.7h-1.1v-0.6h3v0.6H375v3.1h-0.8V305.7z M380.2,305.9L380.2,305.9l-1.1,2.9h-0.5l-1.1-2.9h0v2.9
		h-0.7v-3.7h1.1l1,2.6l1-2.6h1.1v3.7h-0.7L380.2,305.9L380.2,305.9z"/>
	<path class="st1" d="M275.8,230.4c0,0-7.7,4.4,5.4,6c15.9,1.8,24,1.6,41.5-1.8c0,0,4.6,2.9,11,5.4C294.6,256.7,245,239,275.8,230.4
		"/>
	<path class="st1" d="M271,208.4c0,0-8.6,6.4,4.5,7.7c16.9,1.7,30.3,1.9,53.5-2.6c0,0,3.2,3.2,8.2,5
		C289.9,232.5,237.1,219.7,271,208.4"/>
	<path class="st0" d="M311.4,171.3c9.7,11.1-2.5,21.1-2.5,21.1s24.5-12.7,13.3-28.5c-10.5-14.8-18.6-22.1,25.1-47.5
		C347.2,116.4,278.7,133.5,311.4,171.3"/>
	<path class="st1" d="M363.3,246.6c0,0,5.7,4.7-6.2,8.3c-22.6,6.9-94.2,8.9-114,0.3c-7.1-3.1,6.3-7.4,10.5-8.3
		c4.4-1,6.9-0.8,6.9-0.8c-7.9-5.6-51.4,11-22,15.7C318.2,274.7,384,255.9,363.3,246.6"/>
	<path class="st1" d="M279.5,185.7c0,0-36.4,8.6-12.9,11.8c9.9,1.3,29.7,1,48.1-0.5c15.1-1.3,30.2-4,30.2-4s-5.3,2.3-9.2,4.9
		c-37,9.7-108.3,5.2-87.8-4.7C265.4,184.8,279.5,185.7,279.5,185.7"/>
	<path class="st1" d="M344.8,222.2c37.6-19.5,20.2-38.3,8.1-35.8c-3,0.6-4.3,1.2-4.3,1.2s1.1-1.7,3.2-2.5c24-8.4,42.4,24.9-7.7,38.1
		C344,223.2,344.6,222.7,344.8,222.2"/>
	<path class="st0" d="M322.1,75.5c0,0,20.8,20.8-19.7,52.8c-32.5,25.7-7.4,40.3,0,57c-19-17.1-32.9-32.2-23.6-46.2
		C292.6,118.6,330.5,108.6,322.1,75.5"/>
	<path class="st1" d="M283.2,275.1c36.1,2.3,91.4-1.3,92.7-18.3c0,0-2.5,6.5-29.8,11.6c-30.8,5.8-68.7,5.1-91.2,1.4
		C254.9,269.8,259.5,273.6,283.2,275.1"/>
	<path class="st0" d="M277.3,340.3c-3.4,3-7,4.6-10.2,4.6c-4.6,0-7.1-2.8-7.1-7.2c0-4.8,2.7-8.3,13.4-8.3h4V340.3 M286.7,350.9
		v-32.8c0-8.4-4.8-13.9-16.3-13.9c-6.7,0-12.6,1.7-17.4,3.8l1.4,5.8c3.8-1.4,8.6-2.7,13.4-2.7c6.6,0,9.5,2.7,9.5,8.2v4.1H274
		c-16.1,0-23.4,6.3-23.4,15.6c0,8.1,4.8,12.7,13.8,12.7c5.8,0,10.1-2.4,14.2-5.9l0.7,5L286.7,350.9L286.7,350.9z"/>
	<path class="st0" d="M318,350.9h-11.7L292.2,305h10.2l8.7,28.2l1.9,8.5c4.4-12.2,7.6-24.7,9.1-36.6h9.9
		C329.5,320.1,324.7,336.7,318,350.9"/>
	<path class="st0" d="M362.9,340.3c-3.4,3-7,4.6-10.2,4.6c-4.6,0-7.1-2.8-7.1-7.2c0-4.8,2.7-8.3,13.4-8.3h4V340.3 M372.3,350.9
		v-32.8c0-8.4-4.8-13.9-16.3-13.9c-6.7,0-12.6,1.7-17.4,3.8l1.4,5.8c3.8-1.4,8.7-2.7,13.4-2.7c6.6,0,9.5,2.7,9.5,8.2v4.1h-3.3
		c-16.1,0-23.4,6.3-23.4,15.6c0,8.1,4.8,12.7,13.8,12.7c5.8,0,10.1-2.4,14.2-5.9l0.7,5L372.3,350.9L372.3,350.9z"/>
	<path class="st0" d="M240.3,358.7c-2.7,3.9-7,7-11.7,8.7l-4.6-5.5c3.6-1.8,6.7-4.8,8.1-7.6c1.2-2.5,1.8-5.7,1.8-13.3v-52.3h10v51.6
		C243.8,350.6,243,354.7,240.3,358.7"/>
</g>
<g>
	<path class="st0" d="M436.1,552.5H435v-0.6h3v0.6h-1.1v3.1h-0.8V552.5z M442.2,552.6L442.2,552.6l-1.1,3h-0.5l-1.1-3h0v3h-0.7v-3.8
		h1.1l1,2.7l1-2.7h1.1v3.8h-0.7L442.2,552.6L442.2,552.6z"/>
	<g>
		<path class="st1" d="M191.5,581.6c0,0-5.5,3.2,3.9,4.3c11.5,1.3,17.3,1.1,30-1.3c0,0,3.3,2.1,8,3.9
			C205,600.6,169.2,587.8,191.5,581.6"/>
		<path class="st1" d="M188,565.7c0,0-6.2,4.6,3.3,5.6c12.2,1.3,21.9,1.4,38.7-1.9c0,0,2.3,2.3,6,3.6
			C201.7,583.1,163.5,573.8,188,565.7"/>
		<path class="st0" d="M217.2,538.8c7,8-1.8,15.3-1.8,15.3s17.7-9.1,9.6-20.6c-7.6-10.7-13.4-16,18.1-34.3
			C243.1,499.2,193.6,511.6,217.2,538.8"/>
		<path class="st1" d="M254.7,593.3c0,0,4.1,3.4-4.5,6c-16.4,5-68.1,6.4-82.4,0.2c-5.2-2.2,4.5-5.4,7.6-6c3.2-0.7,5-0.6,5-0.6
			c-5.7-4-37.1,7.9-15.9,11.4C222.1,613.6,269.7,600,254.7,593.3"/>
		<path class="st1" d="M194.2,549.3c0,0-26.3,6.2-9.3,8.5c7.2,1,21.5,0.7,34.8-0.4c10.9-0.9,21.8-2.9,21.8-2.9s-3.8,1.6-6.6,3.5
			c-26.7,7-78.3,3.8-63.4-3.4C183.9,548.6,194.2,549.3,194.2,549.3"/>
		<path class="st1" d="M241.3,575.7c27.1-14.1,14.6-27.7,5.8-25.8c-2.1,0.4-3.1,0.8-3.1,0.8s0.8-1.2,2.3-1.8
			c17.3-6.1,30.7,18-5.6,27.5C240.8,576.4,241.2,576,241.3,575.7"/>
		<path class="st0" d="M225,469.6c0,0,15,15-14.3,38.2c-23.5,18.6-5.4,29.1,0,41.2c-13.7-12.4-23.8-23.3-17-33.4
			C203.6,500.8,231,493.5,225,469.6"/>
		<path class="st1" d="M196.8,613.9c26.1,1.7,66.1-0.9,67-13.3c0,0-1.8,4.7-21.5,8.4c-22.2,4.2-49.7,3.7-65.9,1
			C176.4,610,179.7,612.8,196.8,613.9"/>
	</g>
	<path class="st0" d="M336.7,587.9c-3.5,3-7.2,4.7-10.5,4.7c-4.7,0-7.3-2.8-7.3-7.4c0-4.9,2.7-8.5,13.7-8.5h4.1V587.9 M346.4,598.8
		v-33.6c0-8.6-4.9-14.2-16.7-14.2c-6.9,0-12.9,1.7-17.8,3.9l1.4,5.9c3.9-1.4,8.9-2.7,13.8-2.7c6.8,0,9.7,2.7,9.7,8.4v4.2h-3.4
		c-16.5,0-24,6.4-24,16c0,8.3,4.9,13,14.2,13c5.9,0,10.4-2.5,14.5-6l0.8,5.1L346.4,598.8L346.4,598.8z"/>
	<path class="st0" d="M378.5,598.8h-12l-14.4-47h10.5l9,28.9l2,8.7c4.5-12.6,7.7-25.3,9.3-37.6H393
		C390.3,567.3,385.4,584.2,378.5,598.8"/>
	<path class="st0" d="M424.5,587.9c-3.5,3-7.2,4.7-10.5,4.7c-4.7,0-7.3-2.8-7.3-7.4c0-4.9,2.7-8.5,13.7-8.5h4.1V587.9 M434.1,598.8
		v-33.6c0-8.6-4.9-14.2-16.7-14.2c-6.9,0-12.9,1.7-17.8,3.9l1.4,5.9c3.9-1.4,8.9-2.7,13.8-2.7c6.8,0,9.7,2.7,9.7,8.4v4.2h-3.4
		c-16.5,0-24,6.4-24,16c0,8.3,4.9,13,14.1,13c5.9,0,10.4-2.5,14.5-6l0.8,5.1L434.1,598.8L434.1,598.8z"/>
	<path class="st0" d="M298.8,606.8c-2.7,4-7.2,7.2-12,9l-4.7-5.6c3.7-1.9,6.9-5,8.3-7.8c1.3-2.5,1.8-5.8,1.8-13.6v-53.6h10.2V588
		C302.4,598.4,301.6,602.6,298.8,606.8"/>
</g>
</svg>
