<?xml version="1.0" encoding="utf-8"?>
<!-- Generator: Adobe Illustrator 19.1.0, SVG Export Plug-In . SVG Version: 6.00 Build 0)  -->
<svg version="1.1" id="Layer_1" xmlns="http://www.w3.org/2000/svg" xmlns:xlink="http://www.w3.org/1999/xlink" x="0px" y="0px"
	 viewBox="0 0 792 612" style="enable-background:new 0 0 792 612;" xml:space="preserve">
<style type="text/css">
	.st0{fill:#6A7E91;}
	.st1{fill:#FA8A3B;}
	.st2{fill-rule:evenodd;clip-rule:evenodd;fill:#FA8A3B;}
	.st3{fill-rule:evenodd;clip-rule:evenodd;fill:#6A7E91;}
</style>
<g>
	<path class="st0" d="M319.3,353.2h-11.4c-0.4-19.2-1.5-37.3-3.3-54.3h-0.1l-17.4,54.3h-8.7l-17.3-54.3h-0.1
		c-1.3,16.3-2.1,34.4-2.4,54.3h-10.4c0.7-24.2,2.4-46.9,5-68.1h14.1l16.4,50h0.1l16.5-50h13.5C317,309.9,318.8,332.6,319.3,353.2"/>
	<path class="st0" d="M368.8,302.9c-4.6,25.2-10.8,43.5-18.4,54.9c-5.9,8.8-12.4,13.2-19.5,13.2c-1.9,0-4.2-0.6-7-1.7v-6.1
		c1.3,0.2,2.9,0.3,4.7,0.3c3.3,0,6-0.9,8-2.7c2.4-2.2,3.6-4.7,3.6-7.5c0-1.9-0.9-5.8-2.8-11.6L325,302.9h11.2l9,29.1
		c2,6.6,2.9,11.2,2.5,13.8c4.9-13.1,8.3-27.4,10.3-42.9H368.8z"/>
	<polygon class="st1" points="520.5,353.2 488.1,353.2 488.1,285.1 499,285.1 499,344.8 520.5,344.8 	"/>
	<path class="st2" d="M479.7,354.8l-12.5-6.2c1.1-0.9,2.2-1.9,3.1-3c5.3-6.2,8-15.5,8-27.7c0-22.5-8.8-33.8-26.5-33.8
		c-8.7,0-15.4,2.9-20.3,8.6c-5.3,6.3-8,15.5-8,27.6c0,12,2.4,20.8,7.1,26.3c4.3,5,10.8,7.6,19.5,7.6c3.2,0,6.2-0.4,8.9-1.2l16.3,9.5
		L479.7,354.8z M439.1,339.6c-2.8-4.4-4.1-11.6-4.1-21.4c0-17.2,5.2-25.7,15.6-25.7c5.4,0,9.5,2.1,12,6.2c2.8,4.4,4.1,11.5,4.1,21.2
		c0,17.3-5.2,25.9-15.6,25.9C445.7,345.7,441.7,343.7,439.1,339.6"/>
	<path class="st1" d="M418.7,334.3c0,5.8-2.1,10.5-6.4,14.2c-4.2,3.7-9.9,5.5-17,5.5c-6.7,0-13.1-2.1-19.4-6.4l2.9-5.8
		c5.4,2.7,10.3,4,14.6,4c4.1,0,7.3-0.9,9.6-2.7c2.3-1.8,3.7-4.3,3.7-7.6c0-4-2.8-7.5-8-10.4c-4.8-2.6-14.3-8.1-14.3-8.1
		c-5.2-3.8-7.8-7.8-7.8-14.5c0-5.5,1.9-10,5.8-13.4c3.9-3.4,8.9-5.1,15-5.1c6.3,0,12.1,1.7,17.2,5l-2.6,5.8
		c-4.4-1.9-8.8-2.8-13.1-2.8c-3.5,0-6.2,0.8-8.1,2.5c-1.9,1.7-3.1,3.8-3.1,6.5c0,4,2.9,7.5,8.2,10.5c4.8,2.6,14.6,8.2,14.6,8.2
		C416.1,323.7,418.7,327.7,418.7,334.3"/>
	<path class="st3" d="M534.2,262.3c-6.6-0.2-11.7,0.5-16,2.3c-1.2,0.5-3.2,0.5-3.4,2.1c0.7,0.7,0.7,1.7,1.3,2.6c1,1.6,2.7,3.9,4.3,5
		c1.7,1.3,3.5,2.6,5.3,3.8c3.2,2,6.8,3.1,10,5.1c1.8,1.2,3.6,2.6,5.4,3.9c0.9,0.7,1.5,1.7,2.6,2.1v-0.2c-0.6-0.7-0.7-1.8-1.3-2.6
		c-0.8-0.8-1.6-1.6-2.5-2.4c-2.4-3.2-5.4-6-8.6-8.3c-2.6-1.8-8.4-4.3-9.5-7.3c0,0-0.1-0.1-0.2-0.2c1.8-0.2,4-0.8,5.7-1.3
		c2.8-0.7,5.3-0.6,8.2-1.3c1.3-0.3,2.6-0.7,4-1.2v-0.7c-1.5-1.5-2.6-3.5-4.1-4.9c-4.2-3.6-8.8-7.2-13.6-10.1
		c-2.6-1.6-5.8-2.7-8.6-4.1c-1-0.5-2.6-0.7-3.2-1.6c-1.5-1.8-2.3-4.2-3.4-6.3c-2.4-4.5-4.7-9.5-6.7-14.3c-1.5-3.2-2.4-6.4-4.2-9.4
		c-8.5-14-17.7-22.5-31.8-30.8c-3-1.7-6.7-2.5-10.5-3.4c-2.1-0.1-4.1-0.2-6.2-0.3c-1.3-0.6-2.6-2.1-3.8-2.9
		c-4.7-3-16.8-9.4-20.2-0.9c-2.2,5.4,3.3,10.6,5.2,13.3c1.4,1.9,3.2,4,4.2,6.2c0.6,1.4,0.7,2.9,1.3,4.4c1.3,3.6,2.5,7.7,4.3,11
		c0.9,1.7,1.9,3.5,3,5.1c0.7,0.9,1.8,1.3,2.1,2.8c-1.1,1.6-1.2,4.1-1.9,6.2c-3,9.3-1.8,20.8,2.4,27.6c1.3,2.1,4.4,6.6,8.6,4.9
		c3.7-1.5,2.9-6.2,3.9-10.3c0.2-1,0.1-1.6,0.6-2.3v0.2c1.2,2.3,2.3,4.5,3.4,6.8c2.6,4,7,8.2,10.7,11c2,1.5,3.5,4,6,4.9v-0.2h-0.2
		c-0.5-0.7-1.2-1.1-1.9-1.6c-1.5-1.5-3.1-3.3-4.3-4.9c-3.5-4.6-6.5-9.7-9.2-15c-1.3-2.6-2.5-5.4-3.5-7.9c-0.5-1-0.5-2.5-1.3-3
		c-1.2,1.8-3,3.4-3.9,5.6c-1.6,3.5-1.7,7.9-2.3,12.4c-0.3,0.1-0.2,0-0.3,0.2c-2.6-0.7-3.5-3.4-4.5-5.7c-2.5-5.8-2.9-15.2-0.7-22
		c0.6-1.7,3-7.2,2.1-8.8c-0.5-1.6-2.1-2.5-3-3.7c-1.1-1.6-2.2-3.5-3-5.3c-2-4.6-3-9.7-5.1-14.3c-1-2.1-2.7-4.4-4.1-6.3
		c-1.6-2.2-3.3-3.8-4.5-6.4c-0.4-0.9-1-2.4-0.3-3.4c0.2-0.7,0.5-0.9,1.2-1.1c1.1-0.9,4.1,0.2,5.2,0.7c3,1.2,5.6,2.4,8.1,4.1
		c1.2,0.8,2.4,2.4,3.9,2.8h1.7c2.6,0.6,5.6,0.2,8.1,0.9c4.4,1.4,8.3,3.5,11.8,5.7c10.8,6.8,19.7,16.5,25.7,28.1
		c1,1.9,1.4,3.6,2.3,5.6c1.7,4,3.9,8.2,5.6,12.1c1.7,3.9,3.4,7.8,5.8,11c1.2,1.7,6.2,2.6,8.4,3.5c1.6,0.7,4.2,1.4,5.7,2.3
		c2.8,1.7,5.6,3.7,8.2,5.6C529.8,258.6,533.9,260.6,534.2,262.3"/>
	<path class="st3" d="M450.3,190.7c-1.4,0-2.4,0.2-3.4,0.4v0.2h0.2c0.7,1.3,1.8,2.2,2.6,3.4c0.7,1.3,1.2,2.6,1.9,3.9
		c0.1-0.1,0.2-0.2,0.2-0.2c1.2-0.8,1.7-2.1,1.7-4.1c-0.5-0.6-0.6-1.2-1-1.7C452,191.8,450.9,191.4,450.3,190.7"/>
	<path class="st1" d="M542,353.2h1.7v-8.3h-2.6l-2.1,5.7l-2.3-5.7h-2.5v8.3h1.6v-6.3h0.1l2.4,6.3h1.2l2.4-6.3V353.2z M528.3,353.2
		h1.8v-6.9h2.4v-1.4h-6.6v1.4h2.5V353.2z"/>
</g>
</svg>
