<?xml version="1.0" encoding="utf-8"?>
<!-- Generator: Adobe Illustrator 19.1.0, SVG Export Plug-In . SVG Version: 6.00 Build 0)  -->
<svg version="1.1" id="Layer_1" xmlns="http://www.w3.org/2000/svg" xmlns:xlink="http://www.w3.org/1999/xlink" x="0px" y="0px"
	 viewBox="0 0 235.3 174.4" style="enable-background:new 0 0 235.3 174.4;" xml:space="preserve">
<style type="text/css">
	.st0{fill-rule:evenodd;clip-rule:evenodd;fill:#333333;}
	.st1{fill-rule:evenodd;clip-rule:evenodd;fill:#80BD01;}
	.st2{fill:#80BD01;}
</style>
<path class="st0" d="M59.2,86c0-0.5-0.3-1-0.8-1.3l-12.5-7.2c-0.2-0.1-0.4-0.2-0.7-0.2c0,0-0.1,0-0.1,0c-0.2,0-0.5,0.1-0.7,0.2
	L32,84.7c-0.5,0.3-0.8,0.8-0.8,1.3l0,19.3c0,0.3,0.1,0.5,0.4,0.7c0.2,0.1,0.5,0.1,0.7,0l7.4-4.2c0.5-0.3,0.8-0.8,0.8-1.3v-9
	c0-0.5,0.3-1,0.8-1.3l3.2-1.8c0.2-0.1,0.5-0.2,0.8-0.2c0.3,0,0.5,0.1,0.7,0.2l3.2,1.8c0.5,0.3,0.8,0.8,0.8,1.3v9
	c0,0.5,0.3,1,0.8,1.3L58,106c0.2,0.1,0.5,0.1,0.8,0c0.2-0.1,0.4-0.4,0.4-0.7L59.2,86z"/>
<path class="st0" d="M125.7,59.4c-0.2-0.1-0.5-0.1-0.7,0c-0.2,0.1-0.4,0.4-0.4,0.6v19.1c0,0.2-0.1,0.4-0.3,0.5
	c-0.2,0.1-0.4,0.1-0.5,0l-3.1-1.8c-0.5-0.3-1-0.3-1.5,0l-12.5,7.2c-0.5,0.3-0.8,0.8-0.8,1.3v14.4c0,0.5,0.3,1,0.8,1.3l12.5,7.2
	c0.5,0.3,1,0.3,1.5,0l12.5-7.2c0.5-0.3,0.8-0.8,0.8-1.3V64.9c0-0.5-0.3-1-0.8-1.3L125.7,59.4z M124.6,96c0,0.1-0.1,0.3-0.2,0.3
	l-4.3,2.5c-0.1,0.1-0.3,0.1-0.4,0l-4.3-2.5c-0.1-0.1-0.2-0.2-0.2-0.3v-4.9c0-0.1,0.1-0.3,0.2-0.3l4.3-2.5c0.1-0.1,0.3-0.1,0.4,0
	l4.3,2.5c0.1,0.1,0.2,0.2,0.2,0.3V96z"/>
<path class="st0" d="M170.4,91c0.5-0.3,0.7-0.8,0.7-1.3v-3.5c0-0.5-0.3-1-0.8-1.3L158,77.7c-0.5-0.3-1-0.3-1.5,0L144,84.9
	c-0.5,0.3-0.8,0.8-0.8,1.3v14.4c0,0.5,0.3,1,0.8,1.3l12.4,7.1c0.5,0.3,1,0.3,1.5,0l7.5-4.2c0.2-0.1,0.4-0.4,0.4-0.7
	c0-0.3-0.1-0.5-0.4-0.7l-12.5-7.2c-0.2-0.1-0.4-0.4-0.4-0.7v-4.5c0-0.3,0.1-0.5,0.4-0.7l3.9-2.3c0.2-0.1,0.5-0.1,0.8,0l3.9,2.3
	c0.2,0.1,0.4,0.4,0.4,0.7v3.5c0,0.3,0.1,0.5,0.4,0.7c0.2,0.1,0.5,0.1,0.8,0L170.4,91z"/>
<path class="st1" d="M81.8,77.6c0.5-0.3,1-0.3,1.5,0l12.5,7.2c0.5,0.3,0.8,0.8,0.8,1.3v14.4c0,0.5-0.3,1-0.8,1.3L83.3,109
	c-0.5,0.3-1,0.3-1.5,0l-12.5-7.2c-0.5-0.3-0.8-0.8-0.8-1.3V86.1c0-0.5,0.3-1,0.8-1.3L81.8,77.6z"/>
<path class="st2" d="M194.6,109.2c-0.4,0-0.9-0.1-1.2-0.3l-3.9-2.3c-0.6-0.3-0.3-0.4-0.1-0.5c0.8-0.3,0.9-0.3,1.8-0.8
	c0.1,0,0.2,0,0.3,0l3,1.8c0.1,0.1,0.3,0.1,0.4,0l11.8-6.8c0.1-0.1,0.2-0.2,0.2-0.3V86.4c0-0.1-0.1-0.3-0.2-0.3l-11.8-6.8
	c-0.1-0.1-0.3-0.1-0.4,0l-11.8,6.8c-0.1,0.1-0.2,0.2-0.2,0.3V100c0,0.1,0.1,0.3,0.2,0.3l3.2,1.9c1.7,0.9,2.8-0.2,2.8-1.2V87.5
	c0-0.2,0.2-0.3,0.3-0.3h1.5c0.2,0,0.3,0.1,0.3,0.3v13.4c0,2.3-1.3,3.7-3.5,3.7c-0.7,0-1.2,0-2.7-0.7l-3.1-1.8
	c-0.8-0.4-1.2-1.3-1.2-2.1V86.4c0-0.9,0.5-1.7,1.2-2.1l11.8-6.8c0.7-0.4,1.7-0.4,2.5,0l11.8,6.8c0.8,0.4,1.2,1.3,1.2,2.1V100
	c0,0.9-0.5,1.7-1.2,2.1l-11.8,6.8C195.4,109.1,195,109.2,194.6,109.2z"/>
<path class="st2" d="M198.2,99.9c-5.1,0-6.2-2.4-6.2-4.3c0-0.2,0.2-0.3,0.3-0.3h1.5c0.2,0,0.3,0.1,0.3,0.3c0.2,1.5,0.9,2.3,4,2.3
	c2.5,0,3.5-0.6,3.5-1.9c0-0.8-0.3-1.3-4.1-1.7c-3.2-0.3-5.2-1-5.2-3.6c0-2.4,2-3.8,5.4-3.8c3.8,0,5.6,1.3,5.9,4.1
	c0,0.1,0,0.2-0.1,0.3c-0.1,0.1-0.2,0.1-0.2,0.1h-1.5c-0.2,0-0.3-0.1-0.3-0.3c-0.4-1.6-1.3-2.1-3.7-2.1c-2.7,0-3,0.9-3,1.6
	c0,0.9,0.4,1.1,4,1.6c3.6,0.5,5.3,1.2,5.3,3.7C204.1,98.4,201.9,99.9,198.2,99.9z"/>
<path class="st1" d="M157,90.3c0.1-0.1,0.2-0.1,0.3,0l2.4,1.4c0.1,0.1,0.1,0.1,0.1,0.3v2.8c0,0.1-0.1,0.2-0.1,0.3l-2.4,1.4
	c-0.1,0.1-0.2,0.1-0.3,0l-2.4-1.4c-0.1-0.1-0.1-0.1-0.1-0.3v-2.8c0-0.1,0.1-0.2,0.1-0.3L157,90.3z"/>
<g>
	<path class="st2" d="M217,81.1c0,1.2-1,2.3-2.3,2.3c-1.2,0-2.3-1-2.3-2.3c0-1.3,1.1-2.3,2.3-2.3C215.9,78.9,217,79.8,217,81.1z
		 M212.8,81.1c0,1.1,0.9,1.9,1.9,1.9c1.1,0,1.9-0.9,1.9-1.9c0-1.1-0.9-1.9-1.9-1.9C213.6,79.2,212.8,80,212.8,81.1z M213.8,79.8h0.9
		c0.3,0,0.9,0,0.9,0.7c0,0.5-0.3,0.6-0.5,0.6c0.3,0,0.4,0.3,0.4,0.6c0,0.2,0.1,0.6,0.1,0.7h-0.5c0-0.1-0.1-0.8-0.1-0.8
		c0-0.1-0.1-0.2-0.3-0.2h-0.4v1h-0.5V79.8z M214.3,81h0.4c0.3,0,0.4-0.2,0.4-0.4c0-0.3-0.2-0.3-0.4-0.3h-0.4V81z"/>
</g>
</svg>
