<?xml version="1.0" encoding="utf-8"?>
<!-- Generator: Adobe Illustrator 19.1.0, SVG Export Plug-In . SVG Version: 6.00 Build 0)  -->
<svg version="1.1" id="Layer_1" xmlns="http://www.w3.org/2000/svg" xmlns:xlink="http://www.w3.org/1999/xlink" x="0px" y="0px"
	 viewBox="0 0 792 612" style="enable-background:new 0 0 792 612;" xml:space="preserve">
<style type="text/css">
	.st0{fill:#ED1C24;}
</style>
<g>
	<path class="st0" d="M383.1,309.4H394l-5.8-9.3l-10.6,16.8l-4.8,0l12.9-20.2c0.5-0.8,1.5-1.3,2.5-1.3c1,0,1.9,0.5,2.5,1.3
		l12.9,20.2l-4.8,0l-2.3-3.8h-11.1L383.1,309.4L383.1,309.4z M433.2,313.1v-17.5h-4.1v19.3c0,0.5,0.2,1,0.6,1.4
		c0.4,0.4,0.9,0.6,1.5,0.6h18.7l2.4-3.8H433.2L433.2,313.1z M365.5,310c4,0,7.2-3.2,7.2-7.2c0-4-3.2-7.2-7.2-7.2h-17.9v21.3h4.1
		v-17.5h13.6c1.9,0,3.4,1.5,3.4,3.4c0,1.9-1.5,3.5-3.4,3.5l-11.5,0l12.2,10.7h6l-8.2-6.9L365.5,310L365.5,310z M322.3,316.9
		c-5.9,0-10.7-4.8-10.7-10.7c0-5.9,4.8-10.7,10.7-10.7h12.4c5.9,0,10.7,4.8,10.7,10.7c0,5.9-4.8,10.7-10.7,10.7L322.3,316.9
		L322.3,316.9z M334.4,313.1c3.8,0,6.9-3.1,6.9-6.9c0-3.8-3.1-6.9-6.9-6.9l-11.8,0c-3.8,0-6.9,3.1-6.9,6.9c0,3.8,3.1,6.9,6.9,6.9
		H334.4L334.4,313.1z M412.2,316.9c-5.9,0-10.7-4.8-10.7-10.7c0-5.9,4.8-10.7,10.7-10.7h14.7l-2.4,3.8l-12,0c-3.8,0-6.9,3.1-6.9,6.9
		c0,3.8,3.1,6.9,6.9,6.9h14.8l-2.4,3.8H412.2L412.2,316.9z M462.3,313.1c-3.2,0-5.8-2.1-6.6-5h17.5l2.4-3.8l-19.9,0
		c0.8-2.9,3.5-5,6.6-5l12,0l2.4-3.8h-14.7c-5.9,0-10.7,4.8-10.7,10.7c0,5.9,4.8,10.7,10.7,10.7h12.6l2.4-3.8H462.3L462.3,313.1z"/>
	<path class="st0" d="M479,297.8c0-1,0.8-1.9,1.9-1.9c1,0,1.9,0.8,1.9,1.9c0,1-0.8,1.9-1.9,1.9C479.8,299.7,479,298.9,479,297.8
		L479,297.8z M480.9,300.2c1.3,0,2.4-1.1,2.4-2.4c0-1.3-1.1-2.4-2.4-2.4c-1.3,0-2.4,1.1-2.4,2.4
		C478.5,299.2,479.5,300.2,480.9,300.2L480.9,300.2z M480.6,296.4c0.4,0,0.5,0,0.7,0.1c0.5,0.2,0.5,0.6,0.5,0.8c0,0,0,0.1,0,0.2
		c0,0.1-0.1,0.3-0.3,0.5c0,0,0,0-0.1,0.1l0.6,1.1h-0.6l-0.5-1h-0.4v1H480v-2.7H480.6L480.6,296.4z M480.8,297.6c0.2,0,0.3,0,0.4-0.2
		c0-0.1,0.1-0.1,0.1-0.2c0-0.1-0.1-0.3-0.2-0.3c-0.1,0-0.2,0-0.5,0h-0.1v0.8H480.8L480.8,297.6z"/>
</g>
</svg>
