<?xml version="1.0" encoding="utf-8"?>
<!-- Generator: Adobe Illustrator 19.1.0, SVG Export Plug-In . SVG Version: 6.00 Build 0)  -->
<svg version="1.1" id="Layer_1" xmlns="http://www.w3.org/2000/svg" xmlns:xlink="http://www.w3.org/1999/xlink" x="0px" y="0px"
	 viewBox="0 0 503 408" style="enable-background:new 0 0 503 408;" xml:space="preserve">
<style type="text/css">
	.st0{fill:#FFFFFF;}
	.st1{fill:#326690;}
</style>
<path class="st0" d="M296.6,326c-8.3,4.6-8,19.2,1.2,22.6c9.7,3.6,20.2,3.7,30.2,6.4c2.4,0.7,4.8,1.9,6,4.1c2.6,5,0.4,12.2-5.3,13.8
	c-8.1,2.5-17.4,2.5-25.3-0.6c-5.1-1.9-7.5-7.3-8-12.4c-2.2,0-4.4,0-6.7,0.2c0.2,4.8,1.5,10,5.4,13.2c6.2,4.9,14.5,5.6,22.1,5.7
	c7-0.1,14.5-0.5,20.5-4.6c7.2-4.9,7.5-17.9-0.7-21.9c-7.6-3.7-16.3-4-24.5-5.8c-4-0.9-8.4-1.2-11.7-3.9c-4.6-4.2-2.4-12.9,3.6-14.5
	c7.5-2.2,15.9-2.4,23.3,0.4c4.4,1.6,6.2,6.1,7,10.3c2.2,0,4.3,0,6.5,0c0-4.3-1.5-8.8-5-11.5c-5.6-4.4-13.1-5-19.9-5
	C309,322.7,302.3,322.9,296.6,326z M358.5,326.6c-6.4,3.2-11.5,9-13.3,16c-1.9,7.5-1.4,16,2.8,22.7c4.2,6.9,11.7,11.2,19.5,12.8
	c7.1,1.4,14.6,1.3,21.7,0c2.6-0.4,4.9-1.9,7.5-1.9c3.3,1.9,6.3,4.4,9.5,6.4c1.4-1.2,2.8-2.5,4.2-3.8c-3.1-2.2-6.2-4.3-9.3-6.5
	c3.9-3.4,7.5-7.5,8.8-12.6c2.5-9.2,1.3-20-5.4-27.2c-5.4-6.1-13.5-9-21.4-9.7C374.8,322.1,366.1,322.7,358.5,326.6z M26,328.5
	c-0.1,16.5-0.1,33,0,49.5c1.6,0,3.3,0,5,0c0.1-7-0.1-14,0-21.1c8-0.1,15.9,0,23.9-0.1c5.9-0.1,12.5-2.9,14.8-8.7
	c1.9-5.4,1.1-12.3-3.4-16.2c-3.3-2.9-8-3.7-12.3-3.7C44.6,328.5,35.3,328.6,26,328.5z M415.6,323.9c0,17.9,0,35.8,0,53.7
	c15.5,0.1,31,0,46.4,0c0-1.5,0-2.9,0-4.4c-13.3-0.3-26.7,0.1-40.1-0.2c0-16.4,0.1-32.9-0.1-49.3
	C419.8,323.8,417.7,323.9,415.6,323.9z M158.4,334.9c0,3.5-0.1,7-0.1,10.5c-2.2,0.1-4.3,0.1-6.5,0.1c0,1.1,0,2.2,0,3.4
	c2.2,0,4.4,0,6.6,0c0,7.5,0,15,0,22.6c0,2.2,0.7,4.7,2.7,5.8c3.5,1.7,7.5,1.4,11.2,1c0-1.1,0-2.2,0-3.3c-2.4,0.1-5,0.5-7.3-0.6
	c-1.6-0.9-1.5-3-1.5-4.6c0-6.9-0.1-13.9,0.1-20.8c2.9,0.1,5.9,0.1,8.8,0c-0.1-1.1-0.1-2.3-0.1-3.4c-2.9,0-5.8,0-8.7,0
	c0-3.5,0-7.1,0-10.6C161.8,334.9,160.1,334.9,158.4,334.9z M83.8,345c-5.3,0.9-10.5,3.9-12.9,8.9c-2.4,5.1-2.3,11.4,0.2,16.4
	c2.8,5.5,8.9,8.4,14.9,8.8c7.3,0.6,15.9-0.2,21.1-6c6.1-7.4,4.9-20.6-3.9-25.6C97.3,344.2,90.2,344,83.8,345z M117.6,347.3
	c-4.6,3.1-4.5,11.4,0.9,13.6c7.5,2.7,15.9,2,23.5,4.2c3.8,1.3,4.1,7.1,0.5,8.9c-5.1,2.6-11.3,2.1-16.8,1.3c-3.8-0.5-7.2-3.3-7.3-7.4
	c-1.9,0-3.7-0.1-5.6,0c0.5,3,1.4,6.2,4,8c4.2,3,9.6,3,14.6,3.2c5.1,0,10.6-0.2,15.1-2.8c3.7-2.1,5.1-7.4,2.9-11.1
	c-1.6-2.5-4.6-3.6-7.3-4.3c-6.2-1.3-12.6-1.2-18.8-2.7c-2.1-0.5-4.3-2.2-4-4.6c0.1-3.4,3.6-5,6.5-5.4c4.7-0.7,9.7-0.9,14.1,1.1
	c2.4,1,3.4,3.6,3.8,6c1.8,0,3.6,0,5.4-0.1c-0.4-2.9-1.3-6.1-4-7.7c-4.7-3.2-10.7-3.1-16.2-3C125.1,344.9,121,345.2,117.6,347.3z
	 M187.7,345.4c-5.3,1.2-10.3,4.9-11.6,10.3c-1.3,5.3-0.9,11.5,2.7,15.9c2.9,3.6,7.6,5.2,12.1,5.7c7.1,0.9,15.1-0.1,20.4-5.5
	c0,4.1,0.6,8.6-2,12.1c-2.7,3.7-7.5,4.5-11.7,4.6c-3.8,0-7.8,0-11.3-1.7c-2.3-1.1-3.1-3.7-4.2-5.9c-1.7,0.1-3.3,0.1-5,0.1
	c0.6,3.2,2.1,6.6,5.2,8.2c4.4,2.3,9.5,2.4,14.4,2.5c5.5-0.1,11.5-0.7,15.8-4.6c3.2-2.9,4-7.5,3.9-11.6c-0.1-10,0.2-20.1-0.2-30.1
	c-1.6,0-3.3,0.1-4.9,0c-0.1,1.7-0.1,3.5-0.2,5.2c-2.2-1.9-4.3-4.3-7.3-5.1C198.6,344.1,192.9,344.2,187.7,345.4z M231.9,345.9
	c-2.3,1-3.6,3.3-4.9,5.3c-0.1-1.9-0.1-3.7-0.1-5.6c-1.7,0-3.4,0-5,0c-0.1,10.8-0.1,21.6,0,32.5c1.7,0,3.3,0,5,0
	c0.1-5.6,0-11.2,0-16.8c0.1-3.9,1.2-8.3,4.6-10.6c3.5-2.5,8-2,12.1-1.9c0-1.4,0-2.8,0-4.1C239.7,344.6,235.6,344.3,231.9,345.9z
	 M245.4,352.6c-4.2,7.1-2.9,17.6,4.1,22.5c6.4,4.6,14.9,4.9,22.4,3.1c5.5-1.2,10.3-5.2,11.9-10.7c-1.9,0-3.7,0-5.5,0
	c-1.5,3.7-4.5,6.8-8.4,7.6c-6,1.3-13,0.9-17.7-3.4c-2.5-2.2-3.5-5.6-3.8-8.9c12.1-0.2,24.2,0,36.3-0.1c-0.2-4.6-1.3-9.5-4.7-12.8
	c-4.6-4.8-11.8-5.7-18.1-5.3C255.5,344.8,248.8,347.1,245.4,352.6z M259,14.3c-12-1.6-24.2-2.8-36.2-0.3c-7,1.1-13.4,4.3-19.8,7.2
	c-19.8-6.2-41.1-10.3-61.7-6.1c-14.6,2.9-28.2,11.4-36,24.2C95.6,54.9,94,74.1,95.4,92c2.6,20.2,7.4,40,13,59.5
	c5.1,16.9,10.9,33.8,20.1,48.9c5.3,8.4,12.4,16.8,22.4,19.5c7.9,2.2,16.3-0.4,22.4-5.5c3.2,3.1,6.9,5.6,11.1,7.1
	c11.9,4.1,25.3,4.1,37.1-0.6c0.7,16.2,0.1,33.1,6,48.5c2.4,7.4,6.6,14.5,13.3,18.8c7.2,4.8,16.4,5.6,24.8,4.1
	c7.7-1.5,15.4-3.4,22.1-7.6c7-4.3,12.3-10.9,15.7-18.3c7.6-16.6,7.9-35.3,9-53.2c17.4,1,35.8-2.9,49.1-14.7
	c5.2-4.4,9.7-11.3,7.7-18.4c-1.6-6.7-8.6-10.7-15.2-10.3c-6.7,0.4-13.2,2.6-20,2.6c15-26.1,26.8-54.3,32.2-84
	c2.1-12.4,3.4-25.4,0-37.6c-1.9-7.1-7.1-12.7-12.2-17.8c-11.5-11.4-26.6-18.8-42.5-21.7C294.1,7.9,276.1,9.8,259,14.3z"/>
<path class="st0" d="M368.8,327.8c9.2-2,19.9-1.4,27.5,4.8c10,7.6,10.9,23.7,3.4,33.3c-5.5,6.7-14.6,9.1-23,8.8
	c-7.5-0.1-15.4-2.7-20.5-8.5c-5.8-6.4-6.7-16.1-4.1-24C354.5,334.7,361.4,329.6,368.8,327.8z"/>
<path class="st0" d="M31,332.5c7.1,0,14.1,0,21.2,0c3.6,0,7.6,0.6,10.1,3.5c2.5,3.2,2.7,7.8,1.4,11.4c-1.7,4.1-6.5,5.5-10.6,5.7
	c-7.3,0.2-14.7,0-22,0.1C30.9,346.3,31,339.4,31,332.5z"/>
<path class="st0" d="M86.3,348.3c4.7-0.5,9.8-0.3,13.9,2.2c3.2,1.9,4.9,5.5,5.2,9.1c0.4,4.1-0.1,8.8-3.2,11.9c-2.8,3-7.1,4-11.1,4.2
	c-4.4,0.2-9.2-0.5-12.6-3.6c-4.2-3.9-5-10.4-3.2-15.6C76.8,351.8,81.5,348.8,86.3,348.3z"/>
<path class="st0" d="M191.9,348.4c4.8-0.7,10.2-0.5,14.4,2.3c5.9,4.1,6.4,13.5,2,18.8c-3.9,4.4-10.4,5.1-15.9,4.3
	c-4.4-0.4-9-2.6-10.7-6.9c-1.6-4.1-1.6-9.1,0.8-13C184.6,350.8,188.3,349,191.9,348.4z"/>
<path class="st0" d="M254.6,350c6.9-3.7,16.7-3,21.9,3.3c1.6,1.8,2.3,4.2,2.7,6.5c-10.3,0.1-20.6,0.1-30.9,0
	C249.2,355.9,250.9,351.9,254.6,350z"/>
<path class="st0" d="M258.9,22.4c18.6-5.8,38.9-7.3,57.8-2.1c15.1,4.1,28.9,13.2,38.4,25.7c3.8,5.2,4.7,11.9,5,18.1
	c0.4,11.2-1.6,22.3-4.1,33.2c-6.9,28.6-19.3,55.7-35,80.6c8.8,3.8,18.7,1.9,27.8,0.3c3.8-0.8,8.7-1.7,11.5,1.7
	c2.8,3.6,0.1,8.2-2.7,10.9c-13.2,12.9-33.3,16.3-51,13.3c-1.8,15.8-3.7,31.6-6.1,47.4c-1.4,8.8-4.3,17.9-11.2,24
	c-6.5,5.7-15,8.2-23.3,9.7c-8.4,1.5-17.9,0.3-24.6-5.5c-7.1-6.2-11.1-15.5-12-24.8c-1.8-15.8-1.9-31.8-1.8-47.7
	c-7.6,6.6-17.7,9.9-27.8,9.2c-7.1-0.6-14.9-1.7-20.2-6.9c-2.9-2.7-2.8-7.8,0.5-10.1c5.7-4.3,13.2-4,19.6-6.4c4.8-1.4,7.2-6,10.2-9.6
	c-5.5-0.4-11-1.8-15.9-4.3c-7.6,8.1-15,16.6-22.2,25.1c-4.1,5-10.2,9.2-17,8.3c-7.6-0.9-13.2-6.9-17.5-12.8
	c-8.4-12-13.5-25.9-18.2-39.7c-7.1-22.1-12.8-44.8-16-67.8c-1.6-17.3-0.2-36.2,9.9-51c8-11.9,22-18.3,35.9-19.8
	c18.7-2,37.6,1.9,55.2,8.2c14.6-9.8,33.3-11.1,50.2-7.7C255.9,22,257.4,22.7,258.9,22.4z M272.7,27.2c3.6,2.5,7.7,4.3,11.4,6.8
	c15,10,26.7,24.6,34,41.1c2,4.7,4.1,9.7,3.7,15c0.1,10.8-3.6,21.3-2.5,32.1c1,11.4,3.5,23.2,0.6,34.5c-0.8,4-2.9,7.6-4.4,11.4
	c0.1,0.6,0.3,1.7,0.4,2.2c1.4-1.8,2.6-3.7,3.8-5.6c11.6-19.7,20.9-40.9,27-63c3.2-11.9,5.7-24.2,5.5-36.6c-0.2-5.2-0.7-10.9-4-15.1
	C341.1,41,331.7,34,321,30C305.7,24.2,288.6,23.7,272.7,27.2z M228.4,28.7c-11.9,1.5-23,8-30.2,17.6c-9.8,12.9-14,29.2-15.3,45.2
	c9.8-4.6,20.9-8.9,31.8-6.1c7.1,1.7,12.5,7.9,14,15c3.2,14.1,4.9,28.9,1.8,43.2c-2.4,11.5-9.4,21.5-11.8,33c3,0.2,6.1,0.4,8.7,1.9
	c5.5,3,8.6,9.4,8.3,15.5c-0.4,15.7-0.4,31.5,0.4,47.1c0.5,6.5,0.7,13.1,2.4,19.4c2.3,7.5,7.6,15.3,15.9,16.7
	c8.7,1.3,17.8-1.1,25.5-5.1c7.6-4,11-12.5,12.3-20.6c2.8-16.8,4.6-33.6,6.6-50.5c0.8-6-0.4-12.6,3-18.1c1.9-3.5,5.7-5.1,9.1-6.8
	c-2.8-3.6-5.8-7.2-8-11.2c-8.4-17.3-19.7-33.6-23.2-52.8c-1.5-8.1-0.6-17.7,6-23.3c7.4-6.3,17.7-6,26.8-5.6
	C307.2,67.8,297,54,284.2,43.8C268.6,31.6,248,26.2,228.4,28.7z M144.9,30c-10.9,2-21.3,8.3-26.8,18.1c-7.4,12.9-8.2,28.5-6.9,43
	c2.6,19.1,7.1,37.9,12.5,56.3c4.8,15.6,10.1,31.3,18.8,45.2c3.2,4.7,6.9,10,12.7,11.7c4.9,1,8.9-3.1,11.8-6.5
	c6.6-8.1,13.8-15.7,20.5-23.6c-10-9.1-15.3-22.8-13.5-36.2c1.4-10.3,1.7-20.7,1.1-31c-1.1-14.7,1-29.6,5.6-43.6
	c3.4-10.5,9.1-20,16.5-28.1C180.2,30.2,162.3,26.6,144.9,30z M291.5,94.6c-5.1,4-4.8,11.2-3.8,16.9c3.6,17.9,14.1,33.3,22.2,49.3
	c6-12.1,2.3-25.9,1.4-38.6c-1-10.3,2.1-20.4,2.5-30.6C306.4,91,298,90,291.5,94.6z M182.7,101.2c0.2,8.6,0.8,17.2,0.2,25.8
	c-0.3,7.6-2.5,15.2-0.8,22.8c2.5,13.4,14.5,25.4,28.6,25.2c2.1-6.8,4.5-13.4,7.4-19.9c8.5-16.7,7.1-36.3,2.7-54
	c-1.2-5-5.9-8.5-10.9-8.8C200.1,91.9,190.7,96,182.7,101.2z M309.8,185.9c-2.6,2.4-2.4,6.3-2.5,9.6c5.8,2,12.1,1.8,18.1,1.1
	c9.1-1,18.3-4,25-10.5c-10.9,1.3-22.9,4-33.1-1.4C314.9,183,311.9,184.4,309.8,185.9z M206.4,198.5c-6.1,3.6-13.5,3.4-19.8,6.3
	c12.8,6.5,30.5,4.2,39.4-7.8c4.5-4.2,0.2-13.1-5.8-12.3C214.6,188.3,212.3,195.3,206.4,198.5z"/>
<path class="st0" d="M293.9,97c3.6-2.6,8.7-2.8,12.7-0.9c-0.1,5.1-6.2,8.8-10.7,6.1C294.1,101.3,291.8,98.7,293.9,97z"/>
<path class="st0" d="M205.3,97.3c3.8-1,8.4-0.5,11.5,2c2.2,1.8,0.2,4.7-1.7,5.8c-4.3,3.2-11.2,0.1-12-5
	C202.8,98.5,204.1,97.7,205.3,97.3z"/>
<path class="st1" d="M296.6,326c5.7-3.1,12.4-3.3,18.7-3.5c6.8,0.1,14.3,0.6,19.9,5c3.5,2.7,5,7.2,5,11.5c-2.2,0-4.3,0-6.5,0
	c-0.8-4.2-2.6-8.8-7-10.3c-7.3-2.8-15.8-2.6-23.3-0.4c-6,1.7-8.2,10.3-3.6,14.5c3.3,2.6,7.7,3,11.7,3.9c8.2,1.7,16.8,2,24.5,5.8
	c8.1,4.1,7.8,17.1,0.7,21.9c-5.9,4.1-13.5,4.5-20.5,4.6c-7.6-0.1-15.9-0.8-22.1-5.7c-4-3.1-5.2-8.4-5.4-13.2
	c2.2-0.1,4.4-0.1,6.7-0.2c0.5,5.1,2.9,10.4,8,12.4c8,3.1,17.2,3.1,25.3,0.6c5.7-1.6,7.9-8.9,5.3-13.8c-1.2-2.2-3.6-3.5-6-4.1
	c-9.9-2.7-20.5-2.8-30.2-6.4C288.7,345.2,288.4,330.6,296.6,326z"/>
<path class="st1" d="M358.5,326.6c7.6-3.9,16.4-4.5,24.7-3.8c7.9,0.7,16,3.6,21.4,9.7c6.7,7.2,7.9,18,5.4,27.2
	c-1.4,5.1-5,9.2-8.8,12.6c3.1,2.2,6.2,4.3,9.3,6.5c-1.4,1.3-2.8,2.6-4.2,3.8c-3.2-2.1-6.2-4.5-9.5-6.4c-2.6,0-4.9,1.6-7.5,1.9
	c-7.2,1.3-14.6,1.4-21.7,0c-7.8-1.6-15.3-5.9-19.5-12.8c-4.2-6.7-4.7-15.2-2.8-22.7C347,335.6,352.1,329.8,358.5,326.6z
	 M368.8,327.8c-7.4,1.7-14.3,6.9-16.7,14.3c-2.5,8-1.7,17.6,4.1,24c5.1,5.8,12.9,8.4,20.5,8.5c8.3,0.3,17.5-2.1,23-8.8
	c7.5-9.6,6.6-25.7-3.4-33.3C388.7,326.4,378,325.9,368.8,327.8z"/>
<path class="st1" d="M415.6,323.9c2.1,0,4.2-0.1,6.3-0.2c0.2,16.4,0,32.9,0.1,49.3c13.3,0.2,26.7-0.1,40.1,0.2c0,1.5,0,2.9,0,4.4
	c-15.5,0-31,0.1-46.4,0C415.6,359.7,415.5,341.8,415.6,323.9z"/>
<path class="st1" d="M272.7,27.2c15.9-3.4,33-3,48.4,2.8c10.6,4,20.1,11,27.2,19.9c3.4,4.2,3.8,9.9,4,15.1
	c0.1,12.4-2.4,24.7-5.5,36.6c-6.1,22.1-15.4,43.3-27,63c-1.2,1.9-2.4,3.8-3.8,5.6c-0.1-0.5-0.3-1.6-0.4-2.2
	c1.4-3.8,3.6-7.4,4.4-11.4c2.9-11.4,0.4-23.1-0.6-34.5c-1.1-10.8,2.6-21.3,2.5-32.1c0.4-5.3-1.7-10.3-3.7-15
	c-7.3-16.4-19-31-34-41.1C280.4,31.4,276.3,29.7,272.7,27.2z"/>
<path class="st1" d="M228.4,28.7c19.6-2.5,40.2,2.9,55.8,15.2c12.9,10.2,23,24,28.5,39.4c-9.1-0.3-19.4-0.7-26.8,5.6
	c-6.7,5.6-7.5,15.2-6,23.3c3.5,19.2,14.8,35.5,23.2,52.8c2.2,4,5.2,7.6,8,11.2c-3.4,1.7-7.1,3.3-9.1,6.8c-3.4,5.4-2.2,12-3,18.1
	c-1.9,16.9-3.8,33.8-6.6,50.5c-1.3,8-4.7,16.6-12.3,20.6c-7.8,4-16.8,6.4-25.5,5.1c-8.3-1.5-13.5-9.2-15.9-16.7
	c-1.7-6.3-1.9-12.9-2.4-19.4c-0.8-15.7-0.9-31.4-0.4-47.1c0.3-6.1-2.8-12.5-8.3-15.5c-2.6-1.5-5.8-1.7-8.7-1.9
	c2.3-11.5,9.4-21.5,11.8-33c3.1-14.3,1.4-29.1-1.8-43.2c-1.6-7-6.9-13.2-14-15c-11-2.8-22,1.5-31.8,6.1c1.2-15.9,5.5-32.2,15.3-45.2
	C205.4,36.6,216.5,30.2,228.4,28.7z"/>
<path class="st1" d="M144.9,30c17.5-3.4,35.4,0.2,52.1,5.3c-7.4,8.1-13.1,17.7-16.5,28.1c-4.6,14-6.7,28.9-5.6,43.6
	c0.6,10.3,0.4,20.8-1.1,31c-1.8,13.4,3.6,27.2,13.5,36.2c-6.8,7.9-14,15.5-20.5,23.6c-2.9,3.4-6.8,7.5-11.8,6.5
	c-5.8-1.7-9.5-7-12.7-11.7c-8.7-13.9-13.9-29.6-18.8-45.2c-5.4-18.5-9.9-37.2-12.5-56.3c-1.3-14.5-0.5-30.1,6.9-43
	C123.6,38.3,134,32,144.9,30z"/>
<path class="st1" d="M291.5,94.6c6.4-4.6,14.8-3.5,22.2-3.1c-0.3,10.3-3.5,20.3-2.5,30.6c0.9,12.8,4.6,26.5-1.4,38.6
	c-8.1-16.1-18.5-31.4-22.2-49.3C286.7,105.7,286.5,98.5,291.5,94.6z M293.9,97c-2.1,1.8,0.2,4.4,2,5.2c4.4,2.6,10.5-1,10.7-6.1
	C302.6,94.2,297.5,94.4,293.9,97z"/>
<path class="st1" d="M182.7,101.2c8.1-5.2,17.5-9.3,27.2-8.7c5.1,0.2,9.7,3.8,10.9,8.8c4.4,17.6,5.8,37.3-2.7,54
	c-3,6.4-5.4,13.1-7.4,19.9c-14.1,0.1-26.1-11.8-28.6-25.2c-1.7-7.6,0.5-15.2,0.8-22.8C183.5,118.4,182.9,109.8,182.7,101.2z
	 M205.3,97.3c-1.2,0.4-2.5,1.3-2.3,2.8c0.9,5.1,7.7,8.2,12,5c1.9-1.1,3.9-4,1.7-5.8C213.7,96.7,209.1,96.2,205.3,97.3z"/>
<path class="st1" d="M309.8,185.9c2.1-1.5,5.1-3,7.5-1.3c10.3,5.4,22.2,2.8,33.1,1.4c-6.7,6.5-15.9,9.5-25,10.5
	c-6,0.7-12.3,0.9-18.1-1.1C307.4,192.3,307.2,188.4,309.8,185.9z"/>
<path class="st1" d="M206.4,198.5c5.9-3.2,8.2-10.2,13.8-13.8c6-0.9,10.4,8.1,5.8,12.3c-8.9,12-26.6,14.3-39.4,7.8
	C192.9,201.9,200.3,202.1,206.4,198.5z"/>
<path d="M26,328.5c9.3,0,18.6-0.1,27.9-0.1c4.3-0.1,8.9,0.7,12.3,3.7c4.5,3.9,5.3,10.8,3.4,16.2c-2.3,5.8-8.9,8.6-14.8,8.7
	c-8,0.1-15.9,0-23.9,0.1c-0.1,7,0.1,14,0,21.1c-1.7,0-3.3,0-5,0C25.9,361.6,25.9,345.1,26,328.5z M31,332.5c0,6.9,0,13.8,0,20.6
	c7.3,0,14.7,0.1,22-0.1c4.1-0.1,8.9-1.5,10.6-5.7c1.4-3.7,1.1-8.3-1.4-11.4c-2.4-2.9-6.5-3.5-10.1-3.5C45.1,332.5,38,332.5,31,332.5
	z"/>
<path d="M158.4,334.9c1.7,0,3.4,0,5.1,0c0,3.5,0,7.1,0,10.6c2.9,0,5.8,0,8.7,0c0,1.1,0.1,2.3,0.1,3.4c-2.9,0.1-5.9,0.1-8.8,0
	c-0.1,7,0,13.9-0.1,20.8c0.1,1.6-0.1,3.7,1.5,4.6c2.3,1.1,4.9,0.7,7.3,0.6c0,1.1,0,2.2,0,3.3c-3.7,0.4-7.7,0.7-11.2-1
	c-2.1-1.1-2.8-3.6-2.7-5.8c0-7.5,0-15,0-22.6c-2.2,0-4.4,0-6.6,0c0-1.1,0-2.2,0-3.4c2.2,0,4.3,0,6.5-0.1
	C158.4,341.9,158.4,338.4,158.4,334.9z"/>
<path d="M83.8,345c6.5-1,13.5-0.7,19.3,2.6c8.7,4.9,10,18.1,3.9,25.6c-5.2,5.8-13.8,6.6-21.1,6c-5.9-0.4-12-3.3-14.9-8.8
	c-2.6-5-2.6-11.3-0.2-16.4C73.2,348.8,78.5,345.8,83.8,345z M86.3,348.3c-4.8,0.6-9.5,3.6-11,8.3c-1.7,5.2-1,11.8,3.2,15.6
	c3.4,3.1,8.2,3.8,12.6,3.6c4-0.2,8.2-1.2,11.1-4.2c3.1-3.1,3.6-7.8,3.2-11.9c-0.3-3.6-2-7.2-5.2-9.1C96,348,91,347.7,86.3,348.3z"/>
<path d="M117.6,347.3c3.4-2.1,7.5-2.5,11.4-2.8c5.5-0.1,11.5-0.2,16.2,3c2.6,1.7,3.6,4.8,4,7.7c-1.8,0.1-3.6,0.1-5.4,0.1
	c-0.4-2.4-1.4-5-3.8-6c-4.4-2-9.4-1.8-14.1-1.1c-2.9,0.4-6.4,2.1-6.5,5.4c-0.3,2.4,1.9,4.1,4,4.6c6.2,1.5,12.6,1.4,18.8,2.7
	c2.8,0.7,5.7,1.8,7.3,4.3c2.1,3.7,0.8,8.9-2.9,11.1c-4.5,2.7-10,2.8-15.1,2.8c-5-0.2-10.4-0.3-14.6-3.2c-2.6-1.8-3.5-5-4-8
	c1.9,0,3.7,0,5.6,0c0.1,4,3.5,6.9,7.3,7.4c5.5,0.8,11.6,1.3,16.8-1.3c3.6-1.8,3.2-7.6-0.5-8.9c-7.6-2.2-16-1.5-23.5-4.2
	C113.1,358.7,113,350.4,117.6,347.3z"/>
<path d="M187.7,345.4c5.3-1.2,10.9-1.3,16.1,0.3c3,0.8,5,3.2,7.3,5.1c0.1-1.7,0.1-3.5,0.2-5.2c1.6,0,3.3,0,4.9,0
	c0.4,10,0.1,20.1,0.2,30.1c0.1,4.1-0.7,8.7-3.9,11.6c-4.3,3.9-10.3,4.5-15.8,4.6c-4.9-0.1-10-0.2-14.4-2.5c-3.1-1.6-4.6-5-5.2-8.2
	c1.7,0,3.3-0.1,5-0.1c1.1,2.2,1.9,4.8,4.2,5.9c3.5,1.7,7.5,1.7,11.3,1.7c4.2-0.1,9-1,11.7-4.6c2.6-3.5,2-8.1,2-12.1
	c-5.3,5.3-13.3,6.3-20.4,5.5c-4.5-0.5-9.2-2.1-12.1-5.7c-3.5-4.4-4-10.6-2.7-15.9C177.4,350.3,182.4,346.6,187.7,345.4z
	 M191.9,348.4c-3.7,0.6-7.4,2.4-9.4,5.6c-2.4,3.8-2.4,8.8-0.8,13c1.7,4.3,6.3,6.5,10.7,6.9c5.5,0.8,12,0.1,15.9-4.3
	c4.4-5.4,3.9-14.7-2-18.8C202.2,347.9,196.8,347.7,191.9,348.4z"/>
<path d="M231.9,345.9c3.7-1.6,7.8-1.3,11.8-1.3c0,1.4,0,2.8,0,4.1c-4.1-0.1-8.6-0.6-12.1,1.9c-3.4,2.3-4.6,6.7-4.6,10.6
	c-0.1,5.6,0,11.2,0,16.8c-1.7,0-3.3,0-5,0c-0.2-10.8-0.2-21.6,0-32.5c1.7,0,3.4,0,5,0c0,1.9,0,3.7,0.1,5.6
	C228.3,349.1,229.6,346.9,231.9,345.9z"/>
<path d="M245.4,352.6c3.4-5.5,10.1-7.8,16.3-8c6.3-0.3,13.5,0.5,18.1,5.3c3.4,3.3,4.6,8.2,4.7,12.8c-12.1,0.1-24.2-0.1-36.3,0.1
	c0.3,3.3,1.3,6.7,3.8,8.9c4.7,4.3,11.8,4.7,17.7,3.4c4-0.9,7-3.9,8.4-7.6c1.8,0,3.7,0,5.5,0c-1.6,5.5-6.4,9.5-11.9,10.7
	c-7.4,1.7-16,1.4-22.4-3.1C242.5,370.2,241.2,359.7,245.4,352.6z M254.6,350c-3.7,1.9-5.4,5.9-6.3,9.8c10.3,0.1,20.6,0.1,30.9,0
	c-0.3-2.3-1-4.7-2.7-6.5C271.3,346.9,261.5,346.3,254.6,350z"/>
<path d="M259,14.3c17.1-4.5,35.1-6.4,52.6-3.1c15.9,2.9,31,10.3,42.5,21.7c5.1,5.1,10.2,10.6,12.2,17.8c3.4,12.3,2.1,25.3,0,37.6
	c-5.4,29.7-17.2,58-32.2,84c6.8,0,13.3-2.1,20-2.6c6.6-0.4,13.6,3.6,15.2,10.3c2,7.1-2.5,14-7.7,18.4
	c-13.3,11.8-31.7,15.7-49.1,14.7c-1,17.9-1.4,36.6-9,53.2c-3.4,7.4-8.7,14-15.7,18.3c-6.7,4.2-14.5,6.1-22.1,7.6
	c-8.4,1.5-17.6,0.7-24.8-4.1c-6.7-4.2-10.9-11.4-13.3-18.8c-5.9-15.4-5.3-32.2-6-48.5c-11.8,4.7-25.1,4.7-37.1,0.6
	c-4.2-1.5-7.9-4-11.1-7.1c-6.1,5.1-14.6,7.7-22.4,5.5c-10-2.7-17.1-11.1-22.4-19.5c-9.2-15.1-15-32-20.1-48.9
	C102.8,132,98,112.2,95.4,92c-1.4-17.9,0.2-37.1,9.8-52.7c7.8-12.8,21.4-21.4,36-24.2c20.6-4.2,41.9-0.1,61.7,6.1
	c6.4-2.9,12.8-6,19.8-7.2C234.8,11.6,247,12.7,259,14.3z M258.9,22.4c-1.5,0.3-3-0.4-4.6-0.6c-16.9-3.4-35.5-2.1-50.2,7.7
	c-17.6-6.3-36.5-10.2-55.2-8.2c-13.9,1.5-27.9,7.9-35.9,19.8c-10.1,14.8-11.5,33.7-9.9,51c3.2,23,8.9,45.7,16,67.8
	c4.7,13.8,9.9,27.7,18.2,39.7c4.2,5.9,9.9,11.9,17.5,12.8c6.8,0.8,12.9-3.4,17-8.3c7.2-8.6,14.5-17,22.2-25.1
	c5,2.5,10.4,3.9,15.9,4.3c-3,3.6-5.5,8.2-10.2,9.6c-6.4,2.5-14,2.1-19.6,6.4c-3.3,2.3-3.4,7.4-0.5,10.1c5.3,5.2,13.1,6.3,20.2,6.9
	c10,0.8,20.1-2.6,27.8-9.2c-0.1,15.9,0,31.9,1.8,47.7c0.9,9.3,4.9,18.5,12,24.8c6.6,5.8,16.1,7,24.6,5.5c8.3-1.6,16.8-4.1,23.3-9.7
	c6.9-6.1,9.8-15.2,11.2-24c2.5-15.7,4.3-31.6,6.1-47.4c17.7,3,37.7-0.4,51-13.3c2.8-2.7,5.5-7.3,2.7-10.9c-2.9-3.3-7.8-2.4-11.5-1.7
	c-9.1,1.6-19,3.5-27.8-0.3c15.7-24.8,28.1-52,35-80.6c2.5-10.9,4.5-22,4.1-33.2c-0.3-6.3-1.1-12.9-5-18.1
	c-9.5-12.5-23.2-21.6-38.4-25.7C297.8,15.1,277.5,16.6,258.9,22.4z"/>
</svg>
