<?xml version="1.0" encoding="utf-8"?>
<!-- Generator: Adobe Illustrator 19.1.0, SVG Export Plug-In . SVG Version: 6.00 Build 0)  -->
<svg version="1.1" id="Layer_1" xmlns="http://www.w3.org/2000/svg" xmlns:xlink="http://www.w3.org/1999/xlink" x="0px" y="0px"
	 viewBox="0 0 203 102.7" style="enable-background:new 0 0 203 102.7;" xml:space="preserve">
<style type="text/css">
	.st0{fill:#262130;}
	.st1{fill:#D84327;}
</style>
<g>
	<path class="st0" d="M40.8,70.9c-2.3-1.2-5-2.1-7.9-2.6c-2.8-0.5-5.7-0.7-8.6-0.7c-2.3,0-4.7-0.2-7-0.6c-2.3-0.4-4.3-1.1-6.1-2.1
		c-1.7-1-3.2-2.4-4.3-4.1c-1.1-1.7-1.6-4-1.6-6.7C5.4,51.7,6,49.6,7,47.9c1.1-1.7,2.5-3.1,4.1-4.1c1.7-1,3.7-1.8,5.9-2.3
		c3.8-0.8,7.7-0.9,11.7-0.4c1.6,0.2,3.1,0.6,4.6,1.2c1.5,0.5,2.9,1.3,4.1,2.2c1.2,0.9,2.3,2.1,3.2,3.4l0.5,0.8l3.8-1.6L44.3,46
		c-1-1.5-2.2-2.8-3.4-3.9c-1.2-1.2-2.7-2.1-4.4-2.9c-1.6-0.8-3.5-1.4-5.5-1.8c-2-0.4-4.4-0.6-7-0.6c-2.5,0-5.1,0.3-7.7,0.9
		c-2.6,0.6-5.1,1.5-7.3,2.8c-2.2,1.3-4.1,3.1-5.5,5.3c-1.4,2.2-2.1,5-2.1,8.1c0,3.3,0.7,6.2,2,8.4c1.3,2.3,3.1,4.1,5.2,5.4
		c2.1,1.3,4.6,2.3,7.3,2.8c2.7,0.5,5.5,0.8,8.4,0.8c2.3,0,4.7,0.2,7.2,0.5c2.4,0.3,4.7,1,6.7,2c2,1,3.6,2.3,4.9,4
		c1.2,1.6,1.8,3.8,1.8,6.6c0,2.4-0.6,4.5-1.8,6.2c-1.2,1.7-2.8,3.1-4.7,4.2c-1.9,1.1-4.1,1.9-6.5,2.4c-2.4,0.5-4.8,0.8-7.1,0.8
		c-3.9,0-7.7-0.7-11.4-2.2c-3.7-1.5-6.9-3.6-9.6-6.5L3,88.8l-3,2.6l0.8,0.8c2.7,2.7,6.1,5.1,10,7c4,2,8.7,3,13.9,3
		c2.5,0,5.2-0.3,7.9-0.9c2.8-0.6,5.4-1.6,7.8-2.9c2.4-1.4,4.4-3.2,6-5.4c1.6-2.3,2.4-5.1,2.4-8.4c0-3.4-0.8-6.2-2.2-8.5
		C45.1,73.9,43.2,72.2,40.8,70.9z"/>
	<path class="st0" d="M93,61.3c-2-2.3-4.4-4.2-7.2-5.7c-2.8-1.5-6-2.2-9.4-2.2c-3.1,0-6.1,0.7-8.9,2c-2.7,1.3-5.2,3.1-7.2,5.4
		c-2,2.2-3.7,4.9-4.9,7.9c-1.2,3-1.8,6.2-1.8,9.4c0,3.1,0.6,6.1,1.6,9c1.1,2.9,2.6,5.5,4.6,7.8c2,2.3,4.4,4.2,7.2,5.6
		c2.8,1.4,5.9,2.2,9.3,2.2h0h0c3.2-0.1,6.2-0.8,9-2.1c2.7-1.3,5.2-3.2,7.2-5.4c2-2.2,3.7-4.9,4.8-7.8c1.2-2.9,1.7-6,1.7-9.3
		c0-2.9-0.5-5.9-1.6-8.8C96.5,66.3,94.9,63.6,93,61.3z M76.4,98.7c-2.7,0-5.2-0.6-7.4-1.7c-2.2-1.1-4.2-2.7-5.8-4.6
		c-1.7-1.9-3-4.1-3.9-6.6c-0.9-2.5-1.5-5.1-1.6-7.8c0-2.4,0.4-4.9,1.3-7.4c0.9-2.5,2.2-4.7,3.8-6.7c1.7-2,3.7-3.6,6-4.8
		c2.3-1.2,4.8-1.8,7.6-1.8c2.6,0,5.1,0.6,7.3,1.7c2.3,1.2,4.3,2.7,6,4.6c1.7,1.9,3,4.1,4,6.6c1,2.5,1.5,5.1,1.5,7.7
		c0,2.4-0.4,4.9-1.3,7.4c-0.9,2.5-2.2,4.7-3.8,6.7c-1.7,2-3.7,3.6-6,4.8C81.7,98.1,79.2,98.7,76.4,98.7z"/>
	<path class="st0" d="M119.8,97.6c-0.7,0.2-1.3,0.3-1.8,0.4c-0.5,0.1-1.1,0.2-1.7,0.3c-0.6,0.1-1.1,0.1-1.6,0.1
		c-1.3,0-2.3-0.4-3-1.4c-0.8-1-1.1-2-1.1-3V35.6h-4v58.3c0,2.2,0.7,4.1,2.1,5.8c1.4,1.7,3.4,2.5,6,2.5c0.8,0,1.6,0,2.4-0.1
		c0.7-0.1,1.4-0.2,2-0.3c0.6-0.1,1.3-0.2,2.1-0.4l1.4-0.3l-1.8-3.7L119.8,97.6z"/>
	<path class="st0" d="M137,57.4c-2.1,1.5-3.9,3.3-5.5,5.5v-8.8h-4v47.7h4V72.1c0.6-1.9,1.3-3.8,2.3-5.4c1-1.7,2.1-3.1,3.5-4.4
		c1.4-1.2,3-2.2,4.8-3c1.8-0.7,3.8-1.2,6-1.3l1.1-0.1v-3.9h-1.1C143.8,54.1,140.1,55.2,137,57.4z"/>
	<g>
		<path class="st1" d="M193.9,10.6l-33,35.7l41.5-19.1C201.2,20.8,198.2,15.1,193.9,10.6z"/>
		<path class="st1" d="M169.4,0c-4.6,0-8.9,0.9-12.9,2.6l-4.4,37.3l22.1-39.5C172.7,0.1,171.1,0,169.4,0z"/>
		<path class="st1" d="M202.7,29.2l-39.3,22l36.9-4.4c1.7-4.1,2.7-8.5,2.7-13.2C203,32.1,202.9,30.6,202.7,29.2z"/>
		<path class="st1" d="M188.2,61.4c4.4-3,8-7,10.6-11.6l-34.6,6.9L188.2,61.4z"/>
		<path class="st1" d="M176.2,0.7L157,42.4l35.7-33C188.2,5.1,182.6,2,176.2,0.7z"/>
		<path class="st1" d="M172.2,67c3.7-0.3,7.3-1.2,10.5-2.6l-19.4-2.3L172.2,67z"/>
		<path class="st1" d="M138.8,19.8c-1.5,3.3-2.5,7-2.8,10.8l5.2,9.3L138.8,19.8z"/>
		<path class="st1" d="M153.6,4c-4.7,2.5-8.8,6.2-11.8,10.6l4.9,24.5L153.6,4z"/>
	</g>
</g>
</svg>
