<?xml version="1.0" encoding="utf-8"?>
<!-- Generator: Adobe Illustrator 18.1.1, SVG Export Plug-In . SVG Version: 6.00 Build 0)  -->
<svg version="1.1" id="Layer_1" xmlns="http://www.w3.org/2000/svg" xmlns:xlink="http://www.w3.org/1999/xlink" x="0px" y="0px"
	 width="134px" height="40px" viewBox="0 0 134 40" enable-background="new 0 0 134 40" xml:space="preserve">
<g>
	<g>
		<g>
			<g>
				<path fill="#3E8EDE" d="M18.8,8.8v24.9H15V8.8H5V5.1h23.8v3.6H18.8z"/>
				<path fill="#3E8EDE" d="M33.4,33.6V5.1h3.8v28.5H33.4z"/>
				<path fill="#3E8EDE" d="M64.2,25.6c0,4.8-3.2,8.1-10.6,8.1h-9.7V5.1h9.4c6.9,0,9.9,3.1,9.9,7.6c0,2.9-1.7,5.1-4.9,6.2
					C62.2,19.9,64.2,22.4,64.2,25.6z M53.7,8.7h-5.9v8.9c0,0,5.3,0,5.3,0c4.1,0,6.3-1.8,6.3-4.6C59.4,10.3,57.4,8.7,53.7,8.7z
					 M53.4,21.1h-5.6v8.9H54c4.2,0,6.3-1.5,6.3-4.5C60.4,22.3,57.4,21.1,53.4,21.1z"/>
				<path fill="#3E8EDE" d="M89.5,10.3c-2.5-1.6-4.8-2.4-7.8-2.4c-6.2,0-10.4,4.3-10.4,11.4c0,7.1,4.2,11.6,10.4,11.6
					c3.1,0,6.1-1.2,8.1-2.8l0.6,3.9c-2.3,1.5-5.6,2.4-8.8,2.4c-8.3,0-14.3-5.8-14.3-14.9c0-9.1,6-15,14.3-15c3.2,0,6.7,0.9,9,2.4
					L89.5,10.3z"/>
			</g>
			<g>
				<path fill="#3E8EDE" d="M114.2,6.5c-0.4-0.3-0.9-0.5-1.3-0.7c-3.7,7.1-10.5,15.6-19.5,20.5c0.5,1.2,1.2,2.2,1.9,3.1
					C103.1,24.1,110.2,15.2,114.2,6.5z"/>
				<path fill="#3E8EDE" d="M112.6,5.6c-1.8-0.8-3.9-1.2-6.2-1.2c-8.4,0-14.3,6.5-14.3,15c0,1.4,0.2,2.8,0.4,4.1
					C101.1,19.9,108.7,12.2,112.6,5.6z"/>
				<path fill="#3E8EDE" d="M114.5,6.7c-4.4,10.8-9.8,18.5-16.6,25c2.3,1.6,5.2,2.5,8.4,2.5c8.4,0,14.3-6.5,14.3-15
					C120.7,13.5,118.3,9.2,114.5,6.7z"/>
			</g>
			<g>
				<path fill="#3E8EDE" d="M120.7,5.7L120.7,5.7c0-2,1.6-3.7,3.7-3.7c2.1,0,3.7,1.7,3.7,3.7v0c0,2-1.6,3.7-3.7,3.7
					C122.3,9.4,120.7,7.7,120.7,5.7z M127.6,5.7L127.6,5.7c0-1.8-1.4-3.3-3.3-3.3c-1.8,0-3.3,1.5-3.3,3.3v0c0,1.8,1.4,3.3,3.3,3.3
					C126.2,9,127.6,7.5,127.6,5.7z M122.9,3.8h1.7c0.8,0,1.4,0.4,1.4,1.2c0,0.6-0.4,1-0.9,1.1l1,1.4h-0.9l-0.9-1.3h-0.8v1.3h-0.7
					V3.8z M124.5,5.6c0.5,0,0.8-0.3,0.8-0.6c0-0.4-0.3-0.6-0.8-0.6h-0.9v1.2H124.5z"/>
			</g>
		</g>
	</g>
</g>
</svg>
